<?xml version="1.0"?>
<svg width="640" height="480" xmlns="http://www.w3.org/2000/svg" xmlns:svg="http://www.w3.org/2000/svg">
 <!-- Created with SVG-edit - http://svg-edit.googlecode.com/ -->
 <g>
  <title>Layer 1</title>
  <polygon stroke="#000000" stroke-width="5" points="188,194.87168884277344 215.12353515625,279.3896179199219 297.71710205078125,281.21270751953125 231.8868408203125,335.27069091796875 255.80889892578125,420.91534423828125 188,369.8070983886719 120.19110107421875,420.91534423828125 144.11312866210938,335.27069091796875 78.28289794921875,281.21270751953125 160.87643432617188,279.3896179199219 188,194.87168884277344 215.12353515625,279.3896179199219 " strokeWidth="5" strokecolor="#000000" fill="none" orient="point" r2="36.051321" r="90.128304" point="5" shape="star" id="svg_14" cy="315" cx="167"/>
  <polygon stroke-width="5" stroke="#000000" points="159,20.02335338842734 175.2173822523488,66.67868827049703 224.60068923212418,67.68504398202892 185.24027569284968,97.52598240718844 199.543455630872,144.8032793237574 159,116.59065864462906 118.45654436912801,144.8032793237574 132.75972430715032,97.52598240718844 93.3993107678758,67.68504398202893 142.7826177476512,66.67868827049703 159,20.02335338842734 175.21738225234878,66.67868827049703 " strokeWidth="5" strokecolor="#000000" fill="none" orient="point" r2="27.590659" r="68.976647" point="5" shape="star" id="svg_12" cy="89" cx="159"/>
  <polygon stroke-width="5" stroke="#000000" points="496,142.17303466796875 521.1165161132812,214.43006896972656 597.5984497070312,215.9886474609375 536.639404296875,262.20452880859375 558.7913208007812,335.4248352050781 496,291.73077392578125 433.20867919921875,335.4248352050781 455.360595703125,262.20452880859375 394.4015197753906,215.9886474609375 470.88348388671875,214.43006896972656 496,142.17303466796875 521.1165161132812,214.43006896972656 " strokeWidth="5" strokecolor="#000000" fill="none" orient="point" r2="42.730785" r="106.826963" point="5" shape="star" id="svg_13" cy="278" cx="468"/>
  <polygon stroke-width="5" stroke="#000000" points="332,25.477057717038768 345.5244548569583,64.38518485065404 386.7075690946803,65.22443326811575 353.88302763787215,90.1102266927537 365.81113714239575,129.53703787336488 332,106.00917691318449 298.18886285760425,129.53703787336488 310.11697236212785,90.1102266927537 277.2924309053197,65.22443326811575 318.4755451430417,64.38518485065406 332,25.477057717038768 345.5244548569583,64.38518485065404 " strokeWidth="5" strokecolor="#000000" fill="none" orient="point" r2="23.009177" r="57.522942" point="5" shape="star" id="svg_15" cy="83" cx="332"/>
  <line id="svg_16" y2="193" x2="371" y1="181" x1="61" stroke-linecap="null" stroke-linejoin="null" stroke-dasharray="null" stroke-width="5" stroke="#000000" fill="none"/>
  <line id="svg_17" y2="423" x2="336" y1="236" x1="300" stroke-linecap="null" stroke-linejoin="null" stroke-dasharray="null" stroke-width="5" stroke="#000000" fill="none"/>
  <line id="svg_18" y2="85" x2="606" y1="65" x1="454" stroke-linecap="null" stroke-linejoin="null" stroke-dasharray="null" stroke-width="5" stroke="#000000" fill="none"/>
  <line id="svg_19" y2="435" x2="463" y1="372" x1="575" stroke-linecap="null" stroke-linejoin="null" stroke-dasharray="null" stroke-width="5" stroke="#000000" fill="none"/>
  <line id="svg_20" y2="338" x2="37" y1="428" x1="107" stroke-linecap="null" stroke-linejoin="null" stroke-dasharray="null" stroke-width="5" stroke="#000000" fill="none"/>
 </g>
</svg>